<?xml version="1.0" encoding="UTF-8" standalone="no"?><!DOCTYPE svg PUBLIC "-//W3C//DTD SVG 1.1//EN" "http://www.w3.org/Graphics/SVG/1.1/DTD/svg11.dtd"><svg width="100%" height="100%" viewBox="0 0 1789 418" version="1.1" xmlns="http://www.w3.org/2000/svg" xmlns:xlink="http://www.w3.org/1999/xlink" xml:space="preserve" xmlns:serif="http://www.serif.com/" style="fill-rule:evenodd;clip-rule:evenodd;stroke-linejoin:round;stroke-miterlimit:2;"><rect id="wide_fullcolor" x="0" y="-0" width="1789" height="418" style="fill:none;"/><g><path d="M44.522,314.538c0.536,0.167 1.049,0.399 1.529,0.691c89.124,53.977 265.053,59.157 370.954,-0.152c0.334,-0.187 0.683,-0.347 1.043,-0.477c30.415,-10.883 53.02,12.221 18.072,42.112c-0.468,0.4 -0.986,0.734 -1.542,0.996c-141.434,66.454 -333.297,44.098 -405.047,-0.804c-32.516,-20.35 -16.764,-52.194 14.991,-42.366Z" style="fill:#ff5b52;"/><path d="M99.154,244.592l-35.338,-61.147l16.4,-13.744l18.865,29.013c-1.579,-48.478 -8.093,-95.311 -20.753,-140.095c4.869,-20.07 83.789,-31.147 160.305,-31.199l-0,0.138c71.743,1.331 141.407,12.243 145.973,31.061c-21.046,74.442 -25.106,154.546 -17.75,238.456c-42.741,10.736 -85.482,16.345 -128.223,16.847l-0,-0.023c-47.518,0.711 -95.037,-4.888 -142.555,-16.824c1.549,-17.669 2.591,-35.169 3.076,-52.483Zm-78.554,-150.699c14.213,39.823 58.364,29.134 56.225,59.787c-0.572,7.938 -5.448,14.925 -12.701,18.199c-7.253,3.273 -15.717,2.308 -22.046,-2.515c-15.408,-12.466 -26.888,-41.905 -21.478,-75.471Z" style="fill:#ff5b52;"/><g><path id="brush_saved" d="M1782.06,294.054c-49.285,8.01 -46.465,-22.091 -79.974,-19.478c-14.286,1.114 -29.181,12.255 -29.181,27.603c0,15.348 20.25,28.119 34.518,28.109c25.07,-0.019 45.513,-11.359 74.637,-36.234Zm-120.582,1.574c-172.236,-6.821 -922.017,-4.942 -1105.03,-0.087c-3.717,0.098 -7.012,0.893 -8.664,2.091c-1.54,1.046 -1.732,2.093 -0.45,3.147c1.518,1.271 4.845,2.146 8.684,2.284c184.902,6.624 937.555,9.559 1105.46,2.771l-0,-10.206Z" style="fill:#ff5b52;"/><g transform="matrix(0.999865,0,0,1,-0.0660933,0)"><g transform="matrix(99.0575,0,0,99.0575,1656.31,413.447)"></g><text x="561.721px" y="413.447px" style="font-family:'Poppins-Bold', 'Poppins';font-weight:700;font-size:99.058px;fill:#27282a;">D<tspan x="648.694px 692.874px 783.313px 827.493px 900.993px 988.956px 1051.16px 1087.12px 1156.27px 1249.08px 1333.88px 1423.32px 1510.3px 1589.84px " y="413.447px 413.447px 413.447px 413.447px 413.447px 413.447px 413.447px 413.447px 413.447px 413.447px 413.447px 413.447px 413.447px 413.447px ">IGITAL FOUNDRY</tspan></text></g><path d="M702.791,4.351c0.438,0 0.865,-0.142 1.215,-0.405l3.96,-2.97c0.613,-0.46 1.434,-0.534 2.12,-0.191c0.686,0.343 1.119,1.044 1.119,1.811l-0,53.656c-0,0.778 -0.446,1.488 -1.148,1.825c-0.701,0.337 -1.534,0.242 -2.141,-0.244l-5.83,-4.664c-0.359,-0.287 -0.805,-0.444 -1.265,-0.444l-63.024,0c-0.54,0 -1.059,0.216 -1.439,0.6c-0.38,0.385 -0.591,0.905 -0.585,1.446l1.869,181.376c0.029,2.779 0.91,5.482 2.525,7.743l4.906,6.869c0.441,0.618 0.5,1.429 0.153,2.104c-0.347,0.674 -1.042,1.098 -1.8,1.098l-65.651,-0c-0.758,-0 -1.453,-0.424 -1.8,-1.098c-0.347,-0.675 -0.288,-1.486 0.153,-2.104l4.906,-6.869c1.615,-2.261 2.496,-4.964 2.525,-7.743l1.869,-181.376c0.006,-0.541 -0.205,-1.061 -0.585,-1.446c-0.38,-0.384 -0.898,-0.6 -1.439,-0.6l-63.024,0c-0.46,0 -0.906,0.157 -1.265,0.444l-5.83,4.664c-0.607,0.486 -1.44,0.581 -2.141,0.244c-0.702,-0.337 -1.148,-1.047 -1.148,-1.825l0,-53.656c0,-0.767 0.433,-1.468 1.119,-1.811c0.686,-0.343 1.507,-0.269 2.12,0.191l3.96,2.97c0.351,0.263 0.777,0.405 1.215,0.405l184.381,0Zm570.737,0c0.438,0 0.864,-0.142 1.214,-0.405l3.96,-2.97c0.613,-0.46 1.434,-0.534 2.12,-0.191c0.686,0.343 1.119,1.044 1.119,1.811l0,53.656c0,0.778 -0.446,1.488 -1.147,1.825c-0.702,0.337 -1.534,0.242 -2.142,-0.244l-5.83,-4.664c-0.359,-0.287 -0.805,-0.444 -1.264,-0.444l-63.025,0c-0.54,0 -1.058,0.216 -1.439,0.6c-0.38,0.385 -0.591,0.905 -0.585,1.446l1.87,181.376c0.028,2.779 0.91,5.482 2.525,7.743l4.905,6.869c0.441,0.618 0.5,1.429 0.153,2.104c-0.347,0.674 -1.042,1.098 -1.8,1.098l-65.651,-0c-0.758,-0 -1.453,-0.424 -1.8,-1.098c-0.347,-0.675 -0.288,-1.486 0.153,-2.104l4.906,-6.869c1.615,-2.261 2.496,-4.964 2.525,-7.743l1.87,-181.376c0.005,-0.541 -0.206,-1.061 -0.586,-1.446c-0.38,-0.384 -0.898,-0.6 -1.439,-0.6l-63.024,0c-0.46,0 -0.906,0.157 -1.265,0.444l-5.829,4.664c-0.608,0.486 -1.441,0.581 -2.142,0.244c-0.701,-0.337 -1.148,-1.047 -1.148,-1.825l0,-53.656c0,-0.767 0.434,-1.468 1.12,-1.811c0.685,-0.343 1.506,-0.269 2.12,0.191l3.959,2.97c0.351,0.263 0.777,0.405 1.215,0.405l184.382,0Zm-454.044,-0.227c0.758,-0 1.453,0.424 1.8,1.098c0.347,0.675 0.288,1.486 -0.153,2.104l-4.906,6.869c-1.615,2.261 -2.496,4.964 -2.525,7.743l-1.104,107.104l1.104,107.105c0.029,2.779 0.91,5.482 2.525,7.743l4.906,6.869c0.441,0.618 0.5,1.429 0.153,2.104c-0.347,0.674 -1.042,1.098 -1.8,1.098l-67.118,-0c-0.759,-0 -1.453,-0.424 -1.8,-1.098c-0.347,-0.675 -0.288,-1.486 0.152,-2.104l4.906,-6.869c1.615,-2.261 2.497,-4.964 2.525,-7.743l1.104,-107.105l-1.104,-107.104c-0.028,-2.779 -0.91,-5.482 -2.525,-7.743l-4.906,-6.869c-0.44,-0.618 -0.499,-1.429 -0.152,-2.104c0.347,-0.674 1.041,-1.098 1.8,-1.098l67.118,-0Zm806.753,176.307l0.574,55.716c0.029,2.779 0.911,5.482 2.526,7.743l4.905,6.869c0.441,0.618 0.5,1.429 0.153,2.104c-0.347,0.674 -1.042,1.098 -1.8,1.098l-67.118,-0c-0.758,-0 -1.453,-0.424 -1.8,-1.098c-0.347,-0.675 -0.288,-1.486 0.153,-2.104l4.906,-6.869c1.615,-2.261 2.496,-4.964 2.525,-7.743l1.104,-107.105l-1.104,-107.104c-0.029,-2.779 -0.91,-5.482 -2.525,-7.743l-4.906,-6.869c-0.441,-0.618 -0.5,-1.429 -0.153,-2.104c0.347,-0.674 1.042,-1.098 1.8,-1.098l67.118,-0c0.33,-0 0.649,0.08 0.932,0.227l45.728,0c20.877,-0.007 41.005,7.783 56.438,21.846c38.975,35.715 40.385,103.121 -5.301,136.858c-15.34,11.275 -33.881,17.356 -52.919,17.356c-13.4,0.012 -34.818,0.017 -51.236,0.02Zm-0.096,-93.421l-0.033,45.164c0,0 41.544,0 49.604,-0.108c4.281,-0 8.521,-0.838 12.48,-2.467c24.3,-9.638 27.766,-42.206 13.304,-62.034c-7.052,-9.413 -18.125,-14.955 -29.885,-14.956l-45.116,0l-0.354,34.401Zm-692.526,93.421l0.574,55.716c0.029,2.779 0.91,5.482 2.525,7.743l4.906,6.869c0.441,0.618 0.5,1.429 0.153,2.104c-0.347,0.674 -1.042,1.098 -1.8,1.098l-67.118,-0c-0.758,-0 -1.453,-0.424 -1.8,-1.098c-0.347,-0.675 -0.288,-1.486 0.153,-2.104l4.905,-6.869c1.615,-2.261 2.497,-4.964 2.526,-7.743l1.104,-107.105l-1.104,-107.104c-0.029,-2.779 -0.911,-5.482 -2.526,-7.743l-4.905,-6.869c-0.441,-0.618 -0.5,-1.429 -0.153,-2.104c0.347,-0.674 1.042,-1.098 1.8,-1.098l67.118,-0c0.33,-0 0.649,0.08 0.931,0.227l45.729,0c20.877,-0.007 41.005,7.783 56.437,21.846c38.976,35.715 40.386,103.121 -5.3,136.858c-15.341,11.275 -33.881,17.356 -52.919,17.356c-13.401,0.012 -34.819,0.017 -51.236,0.02Zm-0.097,-93.421l-0.032,45.164c0,0 41.544,0 49.603,-0.108c4.282,-0 8.521,-0.838 12.481,-2.467c24.3,-9.638 27.766,-42.206 13.304,-62.034c-7.052,-9.413 -18.125,-14.955 -29.885,-14.956l-45.116,0l-0.355,34.401Zm477.081,-86.439c67.158,-0 121.682,57.566 121.682,128.471c0,70.906 -54.524,128.472 -121.682,128.472c-67.159,0 -121.683,-57.566 -121.683,-128.472c-0,-70.905 54.524,-128.471 121.683,-128.471Zm-0,53.431c-36.193,0 -65.577,33.625 -65.577,75.04c0,41.416 29.384,75.04 65.577,75.04c36.192,0 65.576,-33.624 65.576,-75.04c0,-41.415 -29.384,-75.04 -65.576,-75.04Z" style="fill:#27282a;"/></g></g></svg>